<svg width="830" height="830" viewBox="0 0 830 830" fill="none" xmlns="http://www.w3.org/2000/svg">
<g clip-path="url(#clip0_301_2)">
<path d="M794.756 758.19H734.84V257.723H792.994C812.379 257.723 828.238 241.864 828.238 222.479C828.238 203.094 812.379 187.235 792.994 187.235H699.596H578.004V90.3128C578.004 76.2157 569.194 63.8792 556.857 58.5928L421.168 3.9652C412.358 0.440942 403.547 0.440942 394.735 3.9652L267.855 58.5928C255.52 63.8792 246.708 76.2157 246.708 90.3128V187.235H128.642H35.2442C15.8592 187.235 0 203.094 0 222.479C0 241.864 15.8592 257.723 35.2442 257.723H93.3977V758.19H35.2442C15.8592 758.19 0 774.05 0 793.435C0 812.82 15.8592 828.679 35.2442 828.679H128.642H334.821H493.419H699.598H792.995C812.38 828.679 830.002 812.82 830.002 793.435C830.002 774.05 814.141 758.19 794.756 758.19ZM315.436 113.222L408.833 72.6915L511.042 113.222V310.589H317.198H315.436V113.222V113.222ZM162.122 257.723H246.708V345.833C246.708 365.218 262.567 381.077 281.952 381.077H546.283C563.904 381.077 579.765 365.218 578.003 345.833V257.723H664.35V758.19H528.66V536.152C528.66 516.767 512.801 500.908 493.416 500.908H334.817C315.432 500.908 299.573 516.767 299.573 536.152V758.19H162.121V257.723H162.122ZM459.937 758.19H370.063V571.397H459.937V758.19Z" fill="url(#paint0_linear_301_2)"/>
</g>
<defs>
<linearGradient id="paint0_linear_301_2" x1="415.001" y1="1.32201" x2="415.001" y2="828.679" gradientUnits="userSpaceOnUse">
<stop stop-color="#6366f1"/>
<stop offset="1" stop-color="#0ea5e9"/>
</linearGradient>
<clipPath id="clip0_301_2">
<rect width="830" height="830" fill="white"/>
</clipPath>
</defs>
</svg>
