<svg width="1269" height="1269" viewBox="0 0 1269 1269" fill="none" xmlns="http://www.w3.org/2000/svg">
<path d="M498.981 1241.13C497.818 1239.13 496.232 1237.06 494.381 1235.21C494.011 1234.84 493.588 1234.47 493.218 1234.1L493.271 1234.16C476.774 1217.92 451.024 1216.87 433.311 1230.82L433.152 1230.98L381.229 1179.06C395.346 1161.13 394.289 1135.38 378.056 1118.94C361.559 1102.71 335.809 1101.65 318.096 1115.61L317.937 1115.77L266.014 1063.85C280.132 1045.92 279.074 1020.17 262.842 1003.73C246.345 987.493 220.594 986.436 202.881 1000.39L202.723 1000.55L150.799 948.63C164.917 930.706 163.86 904.956 147.627 888.512C131.13 872.279 105.38 871.221 87.6667 885.18L87.5081 885.339L35.5848 833.416C49.7024 815.491 48.6449 789.741 32.4123 773.297C31.1433 772.028 29.2927 771.393 27.9708 770.124L763.779 34.3159C764.308 35.5849 765.154 36.9067 766.264 38.0171C766.529 38.2815 766.793 38.493 767.058 38.7574L767.005 38.7045C767.11 38.8102 767.216 38.916 767.322 39.0217C784.665 56.3647 812.742 56.3647 830.032 39.0217C830.137 38.916 830.243 38.8102 830.349 38.7045C831.618 37.4355 831.618 36.1665 832.887 34.8975L884.863 86.8736C883.7 87.2437 882.537 87.8782 881.585 88.8829C881.426 89.0415 881.215 89.253 881.056 89.4645C864.03 107.971 864.506 136.629 882.378 154.501C883.647 155.77 884.916 156.88 886.238 157.99L886.079 157.832C886.185 157.938 886.291 158.043 886.396 158.149C903.739 175.492 931.816 175.492 949.106 158.149C949.212 158.043 949.318 157.938 949.423 157.832C950.692 156.563 950.692 155.294 951.961 154.025L1003.88 205.948C1002.72 206.318 1001.56 206.953 1000.61 207.957C1000.45 208.116 1000.24 208.327 1000.08 208.539C982.576 226.041 982.576 254.382 1000.08 271.883C1017.58 289.385 1045.92 289.385 1063.42 271.883C1064.69 270.614 1064.69 269.345 1065.96 268.076L1117.88 319.999C1116.67 320.37 1115.5 321.057 1114.55 322.062C1114.39 322.22 1114.23 322.379 1114.08 322.59C1096.57 340.092 1096.57 368.433 1114.08 385.935C1131.58 403.436 1159.92 403.436 1177.42 385.935C1178.69 384.666 1178.69 383.397 1179.96 382.128L1231.88 434.051C1230.72 434.421 1229.56 435.055 1228.6 436.06C1228.44 436.219 1228.23 436.43 1228.07 436.642C1227.97 436.747 1227.86 436.853 1227.76 436.959C1210.41 454.302 1210.41 482.379 1227.76 499.669C1227.86 499.774 1227.97 499.88 1228.02 499.933C1228.34 500.25 1228.66 500.62 1229.03 500.991C1230.93 502.894 1232.99 504.48 1235.16 505.749L1235 505.644L498.981 1241.13ZM988.604 665.379L994.949 671.724C1000.18 676.959 1008.7 676.959 1013.93 671.724C1019.17 666.489 1019.17 657.976 1013.93 652.742L1007.48 646.291C1002.25 641.056 993.733 641.056 988.498 646.291C983.263 651.526 983.263 660.039 988.498 665.273L988.604 665.379ZM987.969 414.011L1099.43 525.472C1104.66 530.706 1113.18 530.706 1118.41 525.472C1123.65 520.237 1123.65 511.724 1118.41 506.49L1006.95 395.029C1001.72 389.794 993.204 389.794 987.969 395.029C982.735 400.264 982.735 408.777 987.969 414.011V414.011ZM699.695 208.327L1058.08 566.714C1063.32 571.949 1071.83 571.949 1077.06 566.714C1082.3 561.48 1082.3 552.967 1077.06 547.732L718.677 189.345C713.442 184.111 704.929 184.111 699.695 189.345C694.46 194.58 694.46 203.093 699.695 208.327V208.327ZM813.059 764.943H828.287C831.724 764.625 835.108 763.145 837.804 760.501C840.501 757.857 841.928 754.42 842.246 750.984V751.036C842.034 748.023 840.765 745.062 838.439 742.735C835.478 739.774 831.512 738.558 827.705 738.981H827.652H714.976C711.539 738.928 708.102 740.197 705.511 742.788C702.92 745.379 701.651 748.869 701.704 752.253C701.44 755.478 702.497 758.756 704.929 761.188C705.722 761.982 706.569 762.616 707.467 763.092L707.414 763.039L575.068 895.385C574.645 894.592 574.011 893.799 573.271 893.112C570.786 890.627 567.507 889.516 564.282 889.728C560.845 889.622 557.408 890.891 554.764 893.535C552.121 896.178 550.905 899.615 550.957 902.999L550.905 1015.68C550.852 1019.11 552.121 1022.55 554.712 1025.14C557.302 1027.73 560.792 1029 564.176 1028.95C567.613 1028.63 570.997 1027.15 573.694 1024.51C576.39 1021.86 577.818 1018.43 578.135 1014.99V1015.04V999.813L813.059 764.943ZM944.136 621.175L950.481 627.52C955.716 632.755 964.228 632.755 969.463 627.52C974.698 622.286 974.698 613.773 969.463 608.538L963.118 602.193C957.883 596.959 949.371 596.959 944.136 602.193C938.901 607.428 938.901 615.941 944.136 621.175V621.175ZM899.827 576.866L906.172 583.211C911.406 588.446 919.919 588.446 925.154 583.211C930.388 577.977 930.388 569.464 925.154 564.229L918.809 557.884C913.574 552.649 905.061 552.649 899.827 557.884C894.592 563.119 894.592 571.632 899.827 576.866V576.866ZM855.517 532.557L861.862 538.902C867.097 544.137 875.61 544.137 880.845 538.902C886.079 533.667 886.079 525.154 880.845 519.92L874.447 513.522C869.212 508.287 860.699 508.287 855.465 513.522C850.23 518.757 850.23 527.269 855.465 532.504L855.517 532.557ZM330.574 624.348L332.478 626.251C306.622 661.731 309.636 711.169 341.308 742.788L470.006 871.486C490.68 892.107 524.097 892.107 544.771 871.486L677.752 738.505C698.373 717.831 698.373 684.414 677.752 663.74L549.054 535.042C517.382 503.37 467.997 500.356 432.888 525.895L432.465 526.212L430.561 524.308C425.221 519.232 416.919 519.232 411.579 524.308L330.574 605.313C325.498 610.653 325.498 618.955 330.574 624.295V624.348ZM811.049 488.406L817.394 494.751C822.629 499.986 831.142 499.986 836.377 494.751C841.611 489.517 841.611 481.004 836.377 475.769L829.979 469.371C824.744 464.137 816.231 464.137 810.997 469.371C805.762 474.606 805.762 483.119 810.997 488.353L811.049 488.406ZM766.74 444.097L773.032 450.389C778.267 455.624 786.78 455.624 792.015 450.389C797.249 445.155 797.249 436.642 792.015 431.407L785.722 425.115C780.488 419.88 771.975 419.88 766.74 425.115C761.506 430.35 761.506 438.862 766.74 444.097ZM722.378 399.735L728.723 406.08C733.958 411.315 742.471 411.315 747.705 406.08C752.94 400.845 752.94 392.332 747.705 387.098L741.36 380.753C736.126 375.518 727.613 375.518 722.378 380.753C717.143 385.987 717.143 394.5 722.378 399.735ZM810.997 241.427L842.669 273.099C847.903 278.334 856.416 278.334 861.651 273.099C866.885 267.865 866.885 259.352 861.651 254.117L829.979 222.445C824.744 217.21 816.231 217.21 810.997 222.445C805.762 227.68 805.762 236.193 810.997 241.427ZM678.069 355.426L684.414 361.771C689.649 367.005 698.161 367.005 703.396 361.771C708.631 356.536 708.631 348.023 703.396 342.789L697.051 336.444C691.816 331.209 683.304 331.209 678.069 336.444C672.834 341.678 672.834 350.191 678.069 355.426ZM741.995 172.425L773.508 203.939C778.743 209.173 787.256 209.173 792.49 203.939C797.725 198.704 797.725 190.191 792.49 184.957L760.977 153.443C755.742 148.209 747.229 148.209 741.995 153.443C736.76 158.678 736.76 167.191 741.995 172.425ZM633.76 311.064L640.105 317.409C645.339 322.643 653.852 322.643 659.087 317.409C664.321 312.174 664.321 303.661 659.087 298.426L652.689 292.029C647.454 286.794 638.941 286.794 633.707 292.029C628.472 297.263 628.472 305.776 633.707 311.011L633.76 311.064ZM589.398 266.754L595.743 273.099C600.977 278.334 609.49 278.334 614.725 273.099C619.959 267.865 619.959 259.352 614.725 254.117L608.327 247.719C603.092 242.485 594.579 242.485 589.345 247.719C584.11 252.954 584.11 261.467 589.345 266.701L589.398 266.754ZM578.188 961.849L577.554 929.542L742.788 764.308L775.095 764.943L578.188 961.849ZM525.577 852.292C515.425 862.391 498.981 862.391 488.829 852.292L429.979 793.442L599.708 623.713L658.558 682.563C668.657 692.715 668.657 709.159 658.558 719.311L525.577 852.292ZM569.887 735.808C585.961 751.882 612.028 751.882 628.102 735.808C644.176 719.734 644.176 693.667 628.102 677.593C612.028 661.519 585.961 661.519 569.887 677.593C554.077 693.773 554.077 719.629 569.887 735.808ZM482.537 823.211L482.59 823.264C498.664 839.338 524.679 839.338 540.7 823.264L540.753 823.211C556.562 807.031 556.562 781.175 540.753 764.995C524.943 748.816 540.7 764.943 540.7 764.943C524.626 748.869 498.611 748.869 482.59 764.943L482.537 764.995C466.728 781.175 466.728 807.031 482.537 823.211V823.211ZM588.287 716.192C582.735 710.587 582.735 701.545 588.34 695.994C593.945 690.442 602.986 690.389 608.591 695.994C614.143 701.545 614.196 710.587 608.644 716.192C608.591 716.245 608.538 716.298 608.485 716.35C602.986 721.849 593.998 721.849 588.499 716.35C588.446 716.298 588.393 716.245 588.34 716.192H588.287ZM500.885 803.541C495.28 797.937 495.28 788.842 500.885 783.237C506.49 777.633 515.584 777.633 521.189 783.237C526.794 788.842 526.794 797.937 521.189 803.541C521.136 803.594 521.083 803.647 521.03 803.7C515.531 809.199 506.542 809.199 501.043 803.7C500.991 803.647 500.938 803.594 500.885 803.541ZM410.944 774.46L360.29 723.806C360.184 723.7 360.079 723.594 359.973 723.489C335.65 699.166 335.65 659.721 359.973 635.399C360.079 635.293 360.184 635.187 360.237 635.134L441.242 554.13C441.348 554.024 441.453 553.918 441.559 553.813C465.882 529.49 505.326 529.49 529.649 553.813L529.913 554.077L580.567 604.731L410.944 774.46Z" fill="url(#paint0_linear_204_2)"/>
<defs>
<linearGradient id="paint0_linear_204_2" x1="631.565" y1="34.3159" x2="631.565" y2="1241.13" gradientUnits="userSpaceOnUse">
<stop stop-color="#6366f1"/>
<stop offset="1" stop-color="#0ea5e9"/>
</linearGradient>
</defs>
</svg>
