<svg width="924" height="924" viewBox="0 0 924 924" fill="none" xmlns="http://www.w3.org/2000/svg">
<path d="M923.982 190.624C923.665 188.089 922.117 185.821 919.87 184.524L691.368 52.5978C688.825 51.1299 685.692 51.1278 683.149 52.5958L4.11589 444.152C1.5707 445.62 0 451.275 0 451.275V732.375C0 735.313 1.56864 738.029 4.11177 739.496L72.9614 779.245L60.184 786.55C47.8035 770.882 30.2051 764.393 17.3825 771.796C9.83331 776.153 5.27335 784.744 4.8704 795.365C4.51473 804.742 7.32924 815.12 12.7958 824.588C18.2604 834.055 25.8425 841.682 34.1401 846.063C39.1667 848.715 44.2838 850.048 49.111 850.048C53.3133 850.048 57.2935 849.038 60.8049 847.009C68.3521 842.653 72.9141 834.063 73.315 823.442C73.5925 816.154 71.9334 808.266 68.6235 800.667L89.4496 788.764L232.589 871.4C233.861 872.134 235.282 872.502 236.7 872.502C238.117 872.502 239.538 872.134 240.808 871.402L314.047 829.174C314.29 845.07 320.537 857.905 331.8 864.404C336.841 867.315 342.42 868.701 348.247 868.701C367.116 868.699 388.544 854.176 402.51 830.005C408.205 820.145 411.944 809.748 413.634 799.763C416.492 804.3 420.24 808.015 424.831 810.663C429.8 813.533 435.349 814.962 441.235 814.962C448.169 814.962 455.574 812.978 463.052 809.029C475.644 802.382 487.182 790.735 495.539 776.241C499.391 769.572 502.327 762.658 504.367 755.791L700.912 642.319C702.811 644.194 704.908 645.851 707.248 647.201C712.219 650.071 717.77 651.502 723.66 651.502C730.588 651.502 737.989 649.523 745.461 645.579C758.047 638.939 769.588 627.294 777.958 612.8C783.643 602.961 787.378 592.546 789.068 582.534C791.928 587.094 795.688 590.815 800.279 593.461C805.248 596.331 810.797 597.759 816.685 597.759C823.619 597.759 831.025 595.778 838.502 591.828C851.092 585.184 862.636 573.537 871.009 559.037C882.091 539.827 885.775 518.421 881.238 502.142L919.868 479.869C922.413 478.401 923.984 475.685 923.984 472.745C923.982 472.743 924.023 190.959 923.982 190.624ZM52.5834 832.768C50.0382 834.238 46.1135 833.786 41.8209 831.518C36.307 828.609 30.9205 823.083 27.0411 816.364C23.1616 809.643 21.0728 802.217 21.3072 795.988C21.4922 791.138 23.0588 787.512 25.6081 786.04C26.6032 785.466 27.7977 785.184 29.1319 785.184C35.4127 785.184 44.7834 791.414 51.1525 802.446C55.032 809.166 57.1208 816.592 56.8843 822.822C56.6993 827.671 55.1307 831.298 52.5834 832.768ZM907.534 226.516L823.364 275.047V254.41L907.534 205.879V226.516ZM705.007 584.768V362.274L806.915 303.515V526.009L705.007 584.768ZM468.29 721.255V498.762L570.2 440.001V662.495L468.29 721.255ZM349.912 789.51V567.018L451.843 508.246V730.74L349.912 789.51ZM244.926 850.046V627.551L333.465 576.5V798.994L244.926 850.046ZM16.4471 486.149V465.519L228.479 587.93V608.559L16.4471 486.149ZM451.843 468.625V489.26L349.912 548.032V527.397L451.843 468.625ZM468.29 459.141L570.2 400.38V421.015L468.29 479.776V459.141V459.141ZM586.65 390.898L688.56 332.137V352.774L586.65 411.535V390.898ZM696.674 308.474L484.628 186.056L585.936 127.638L797.986 250.06L696.674 308.474ZM680.217 317.964L578.313 376.719L366.271 254.305L468.171 195.546L680.217 317.964ZM561.855 386.209L459.061 445.478L247.025 323.064L349.811 263.793L561.855 386.209ZM442.604 454.968L340.95 513.579L128.921 391.17L230.57 332.554L442.604 454.968ZM333.465 557.515L244.926 608.567V587.932L333.465 536.881V557.515ZM228.479 627.549V850.037L195.098 830.766V608.277L228.479 627.549ZM586.65 430.517L688.56 371.756V594.25L586.65 653.011V430.517ZM705.007 343.29V322.655L806.915 263.896V284.533L705.007 343.29ZM687.254 69.2135L899.303 191.642L814.442 240.572L602.391 118.15L687.254 69.2135ZM112.463 400.66L324.493 523.069L236.703 573.687L24.6768 451.28L112.463 400.66ZM16.4471 505.14L45.7312 522.045V744.533L16.4471 727.628V505.14ZM118.933 762.44C116.68 758.501 111.655 757.128 107.712 759.383L89.4928 769.796L62.1803 754.027V531.539L178.65 598.779V821.267L105.981 779.317L115.874 773.663C119.817 771.41 121.186 766.383 118.933 762.44ZM388.267 821.777C375.06 844.641 352.965 857.632 340.021 850.161C332.168 845.627 328.876 833.701 331.267 819.246L397.697 780.943C399.691 792.54 396.334 807.812 388.267 821.777ZM481.293 768.02C474.462 779.868 465.256 789.265 455.371 794.485C450.365 797.131 440.811 800.9 433.054 796.42C425.229 791.901 421.928 780.02 424.267 765.623L490.765 727.28C492.716 738.859 489.344 754.089 481.293 768.02ZM505.617 718.72L689.524 612.681C689.682 618.345 690.63 623.596 692.279 628.314L507.685 734.887C507.757 729.147 507.083 723.689 505.617 718.72ZM763.715 604.573C756.875 616.421 747.664 625.818 737.786 631.032C732.78 633.672 723.226 637.43 715.471 632.958C707.799 628.528 704.46 616.914 706.59 602.84L773.244 564.407C774.983 575.94 771.593 590.936 763.715 604.573ZM856.762 550.813C849.92 562.663 840.708 572.063 830.821 577.283C825.813 579.927 816.251 583.695 808.496 579.211C800.852 574.805 797.512 563.235 799.606 549.206L866.302 510.75C868.002 522.261 864.607 537.216 856.762 550.813ZM823.362 516.525V294.031L907.532 245.5V467.994L823.362 516.525Z" fill="url(#paint0_linear_207_2)"/>
<defs>
<linearGradient id="paint0_linear_207_2" x1="462" y1="51.4958" x2="462" y2="872.502" gradientUnits="userSpaceOnUse">
<stop stop-color="#6366f1"/>
<stop offset="1" stop-color="#0ea5e9"/>
</linearGradient>
</defs>
</svg>
